<svg xmlns:xlink="http://www.w3.org/1999/xlink" width="11.852ex" height="2.343ex" style="font-size: 15px; vertical-align: -1.005ex; margin-left: -0.052ex;" viewBox="-22.5 -576.1 5102.9 1008.6" role="img" focusable="false" xmlns="http://www.w3.org/2000/svg">
<defs>
<path stroke-width="1" id="E1-MJMATHBI-70" d="M24 296Q25 302 27 312T41 350T65 397T103 435T157 452Q235 452 273 404Q336 452 409 452Q434 452 458 448T507 432T550 402T581 354T593 285Q593 221 564 159T480 53Q401 -8 302 -8Q290 -8 279 -7T259 -3T242 3T228 9T218 14T212 18L209 20Q208 19 190 -55T171 -131T198 -132H213Q240 -132 240 -150Q237 -187 223 -192Q219 -194 212 -194Q208 -194 176 -193T95 -192Q48 -192 24 -193T-3 -194Q-11 -194 -16 -190T-22 -182T-23 -176Q-20 -142 -7 -134Q-3 -132 20 -132H44L164 354Q165 357 165 372Q165 401 148 401Q113 401 90 310Q85 289 82 286T60 282H55H44Q24 282 24 296ZM465 339Q465 373 447 387T403 401Q375 401 347 387T303 360T288 341Q288 338 257 216L227 93Q248 43 306 43Q332 43 361 59T410 115Q425 147 445 224Q465 309 465 339Z"></path>
<path stroke-width="1" id="E1-MJMATHI-6B" d="M121 647Q121 657 125 670T137 683Q138 683 209 688T282 694Q294 694 294 686Q294 679 244 477Q194 279 194 272Q213 282 223 291Q247 309 292 354T362 415Q402 442 438 442Q468 442 485 423T503 369Q503 344 496 327T477 302T456 291T438 288Q418 288 406 299T394 328Q394 353 410 369T442 390L458 393Q446 405 434 405H430Q398 402 367 380T294 316T228 255Q230 254 243 252T267 246T293 238T320 224T342 206T359 180T365 147Q365 130 360 106T354 66Q354 26 381 26Q429 26 459 145Q461 153 479 153H483Q499 153 499 144Q499 139 496 130Q455 -11 378 -11Q333 -11 305 15T277 90Q277 108 280 121T283 145Q283 167 269 183T234 206T200 217T182 220H180Q168 178 159 139T145 81T136 44T129 20T122 7T111 -2Q98 -11 83 -11Q66 -11 57 -1T48 16Q48 26 85 176T158 471L195 616Q196 629 188 632T149 637H144Q134 637 131 637T124 640T121 647Z"></path>
<path stroke-width="1" id="E1-MJMAIN-2C" d="M78 35T78 60T94 103T137 121Q165 121 187 96T210 8Q210 -27 201 -60T180 -117T154 -158T130 -185T117 -194Q113 -194 104 -185T95 -172Q95 -168 106 -156T131 -126T157 -76T173 -3V9L172 8Q170 7 167 6T161 3T152 1T140 0Q113 0 96 17Z"></path>
<path stroke-width="1" id="E1-MJMAIN-32" d="M109 429Q82 429 66 447T50 491Q50 562 103 614T235 666Q326 666 387 610T449 465Q449 422 429 383T381 315T301 241Q265 210 201 149L142 93L218 92Q375 92 385 97Q392 99 409 186V189H449V186Q448 183 436 95T421 3V0H50V19V31Q50 38 56 46T86 81Q115 113 136 137Q145 147 170 174T204 211T233 244T261 278T284 308T305 340T320 369T333 401T340 431T343 464Q343 527 309 573T212 619Q179 619 154 602T119 569T109 550Q109 549 114 549Q132 549 151 535T170 489Q170 464 154 447T109 429Z"></path>
<path stroke-width="1" id="E1-MJMATHI-69" d="M184 600Q184 624 203 642T247 661Q265 661 277 649T290 619Q290 596 270 577T226 557Q211 557 198 567T184 600ZM21 287Q21 295 30 318T54 369T98 420T158 442Q197 442 223 419T250 357Q250 340 236 301T196 196T154 83Q149 61 149 51Q149 26 166 26Q175 26 185 29T208 43T235 78T260 137Q263 149 265 151T282 153Q302 153 302 143Q302 135 293 112T268 61T223 11T161 -11Q129 -11 102 10T74 74Q74 91 79 106T122 220Q160 321 166 341T173 380Q173 404 156 404H154Q124 404 99 371T61 287Q60 286 59 284T58 281T56 279T53 278T49 278T41 278H27Q21 284 21 287Z"></path>
<path stroke-width="1" id="E1-MJMAIN-2B" d="M56 237T56 250T70 270H369V420L370 570Q380 583 389 583Q402 583 409 568V270H707Q722 262 722 250T707 230H409V-68Q401 -82 391 -82H389H387Q375 -82 369 -68V230H70Q56 237 56 250Z"></path>
<path stroke-width="1" id="E1-MJMAIN-31" d="M213 578L200 573Q186 568 160 563T102 556H83V602H102Q149 604 189 617T245 641T273 663Q275 666 285 666Q294 666 302 660V361L303 61Q310 54 315 52T339 48T401 46H427V0H416Q395 3 257 3Q121 3 100 0H88V46H114Q136 46 152 46T177 47T193 50T201 52T207 57T213 61V578Z"></path>
</defs>
<g stroke="currentColor" fill="currentColor" stroke-width="0" transform="matrix(1 0 0 -1 0 0)">
 <use xlink:href="#E1-MJMATHBI-70" x="0" y="0"></use>
<g transform="translate(601,-150)">
 <use transform="scale(0.707)" xlink:href="#E1-MJMATHI-6B" x="0" y="0"></use>
 <use transform="scale(0.707)" xlink:href="#E1-MJMAIN-2C" x="521" y="0"></use>
 <use transform="scale(0.707)" xlink:href="#E1-MJMAIN-32" x="800" y="0"></use>
 <use transform="scale(0.707)" xlink:href="#E1-MJMATHI-69" x="1300" y="0"></use>
</g>
 <use xlink:href="#E1-MJMAIN-2C" x="1865" y="0"></use>
<g transform="translate(2310,0)">
 <use xlink:href="#E1-MJMATHBI-70" x="0" y="0"></use>
<g transform="translate(601,-150)">
 <use transform="scale(0.707)" xlink:href="#E1-MJMATHI-6B" x="0" y="0"></use>
 <use transform="scale(0.707)" xlink:href="#E1-MJMAIN-2C" x="521" y="0"></use>
 <use transform="scale(0.707)" xlink:href="#E1-MJMAIN-32" x="800" y="0"></use>
 <use transform="scale(0.707)" xlink:href="#E1-MJMATHI-69" x="1300" y="0"></use>
 <use transform="scale(0.707)" xlink:href="#E1-MJMAIN-2B" x="1646" y="0"></use>
 <use transform="scale(0.707)" xlink:href="#E1-MJMAIN-31" x="2424" y="0"></use>
</g>
</g>
</g>
</svg>